<svg xmlns="http://www.w3.org/2000/svg" xmlns:xlink="http://www.w3.org/1999/xlink" width="800" zoomAndPan="magnify" viewBox="0 0 600 449.999984" height="600" fill="#ff2753" preserveAspectRatio="xMidYMid meet" version="1.0"><defs><g/><clipPath id="5db88617cc"><path d="M 104.34375 41.910156 L 470.34375 41.910156 L 470.34375 407.910156 L 104.34375 407.910156 Z M 104.34375 41.910156 " clip-rule="nonzero"/></clipPath><clipPath id="6f85fc1291"><path d="M 287.34375 41.910156 C 186.273438 41.910156 104.34375 123.84375 104.34375 224.910156 C 104.34375 325.980469 186.273438 407.910156 287.34375 407.910156 C 388.410156 407.910156 470.34375 325.980469 470.34375 224.910156 C 470.34375 123.84375 388.410156 41.910156 287.34375 41.910156 " clip-rule="nonzero"/></clipPath></defs><g clip-path="url(#5db88617cc)"><g clip-path="url(#6f85fc1291)"><path stroke-linecap="butt" transform="matrix(0.749712, 0, 0, 0.749712, 104.343351, 41.910506)" fill="none" stroke-linejoin="miter" d="M 244.094299 -0.000465893 C 109.282096 -0.000465893 0.000532552 109.286307 0.000532552 244.093301 C 0.000532552 378.905504 109.282096 488.187067 244.094299 488.187067 C 378.901293 488.187067 488.188066 378.905504 488.188066 244.093301 C 488.188066 109.286307 378.901293 -0.000465893 244.094299 -0.000465893 " stroke="#ff2753" stroke-width="50" stroke-opacity="1" stroke-miterlimit="4"/></g></g><g  fill-opacity="1"><g transform="translate(153.363593, 233.78765)"><g><path d="M 164.734375 -60.691406 C 164.734375 -99.535156 142.886719 -121.382812 95.027344 -121.382812 L 3.46875 -121.382812 L 3.46875 -119.652344 C 16.300781 -119.652344 18.207031 -117.917969 18.207031 -105.085938 L 18.207031 -16.300781 C 18.207031 -3.46875 16.300781 -1.734375 3.46875 -1.734375 L 3.46875 0 L 95.027344 0 C 142.886719 0 164.734375 -21.847656 164.734375 -60.691406 Z M 48.902344 -119.652344 L 85.664062 -119.652344 C 118.261719 -119.652344 134.042969 -101.269531 134.042969 -60.691406 C 134.042969 -20.113281 118.261719 -1.734375 85.664062 -1.734375 L 48.902344 -1.734375 Z M 48.902344 -119.652344 "/></g></g></g><g fill="#ff2753" fill-opacity="1"><g transform="translate(253.203051, 344.219002)"><g><path d="M 9.710938 -60.691406 C 9.710938 -20.808594 40.230469 1.734375 92.253906 1.734375 C 110.113281 1.734375 124.851562 -1.039062 136.816406 -7.109375 L 150.691406 1.386719 L 152.25 1.386719 L 152.25 -44.21875 C 152.25 -57.050781 154.332031 -58.957031 167.164062 -58.957031 L 167.164062 -60.691406 L 101.617188 -60.691406 L 101.617188 -58.957031 C 119.996094 -58.957031 122.078125 -57.050781 122.078125 -44.21875 L 121.730469 -4.507812 C 113.753906 -1.386719 106.125 0 92.253906 0 C 60.867188 0 40.230469 -21.847656 40.230469 -60.691406 C 40.230469 -99.535156 61.90625 -121.382812 95.027344 -121.382812 C 123.117188 -121.382812 139.59375 -113.929688 146.875 -104.5625 C 144.101562 -107.164062 140.632812 -108.726562 136.296875 -108.726562 C 126.585938 -108.726562 119.996094 -101.617188 119.996094 -91.90625 C 119.996094 -82.195312 126.585938 -75.433594 136.296875 -75.433594 C 146.007812 -75.433594 153.117188 -82.195312 153.117188 -91.90625 C 153.117188 -108.207031 135.949219 -123.117188 95.027344 -123.117188 C 69.015625 -123.117188 47.511719 -119.128906 32.601562 -108.726562 C 17.6875 -97.976562 9.710938 -80.808594 9.710938 -60.691406 Z M 9.710938 -60.691406 "/></g></g></g></svg>